<svg width="68" height="68" viewBox="0 0 68 68" fill="none" xmlns="http://www.w3.org/2000/svg">
<circle cx="34" cy="34" r="34" fill="#F3FCFF"/>
<g clip-path="url(#clip0_0_1)">
<path d="M38.8809 18.7193C39.2207 18.7193 39.4961 18.4439 39.4961 18.1041V16.2462C39.4961 15.9064 39.2207 15.6309 38.8809 15.6309C38.541 15.6309 38.2656 15.9064 38.2656 16.2462V18.1041C38.2656 18.4439 38.541 18.7193 38.8809 18.7193ZM35.8536 18.8335C36.0222 19.1326 36.4002 19.2314 36.6917 19.067C36.9877 18.9001 37.0923 18.5249 36.9253 18.2289L36.1451 16.8459C35.9783 16.55 35.6029 16.4455 35.307 16.6123C35.011 16.7793 34.9064 17.1545 35.0734 17.4505L35.8536 18.8335ZM41.0701 19.067C41.3609 19.231 41.7396 19.1326 41.9082 18.8335L42.6884 17.4505C42.8554 17.1545 42.7508 16.7793 42.4548 16.6123C42.1591 16.4454 41.7836 16.55 41.6167 16.8459L40.8365 18.2289C40.6695 18.5249 40.7741 18.9001 41.0701 19.067ZM52.8968 35.9667L47.9093 34.3048C47.6266 34.2105 47.3991 33.9978 47.2855 33.721L44.5063 26.9594C44.0307 25.8012 42.9138 25.0529 41.6608 25.0529H41.6289V23.9453C41.6289 22.43 40.3961 21.1972 38.8809 21.1972C37.3656 21.1972 36.1328 22.43 36.1328 23.9453V25.0529H31.9524C31.9514 25.0529 31.9503 25.0527 31.9492 25.0527C31.9482 25.0527 31.9471 25.0529 31.946 25.0529H16.0762C14.3799 25.0529 13 26.4328 13 28.129V32.1894C13 32.5292 13.2754 32.8047 13.6152 32.8047C13.9551 32.8047 14.2305 32.5292 14.2305 32.1894V28.129C14.2305 27.1113 15.0585 26.2833 16.0762 26.2833H31.334V39.5722H14.2305V35.0605C14.2305 34.7207 13.9551 34.4453 13.6152 34.4453C13.2754 34.4453 13 34.7207 13 35.0605V44.7404C13 46.4366 14.3799 47.8165 16.0762 47.8165H17.6522C17.9576 50.3769 20.1409 52.3691 22.7822 52.3691C25.4236 52.3691 27.6069 50.3769 27.9123 47.8165H39.1238C39.4292 50.3769 41.6126 52.3691 44.2539 52.3691C46.8952 52.3691 49.0786 50.3769 49.384 47.8165H51.9238C53.6201 47.8165 55 46.4366 55 44.7404V38.885C55 37.5584 54.1548 36.3856 52.8968 35.9667ZM22.7822 51.1386C20.611 51.1386 18.8447 49.3723 18.8447 47.2011C18.8447 45.03 20.611 43.2636 22.7822 43.2636C24.9534 43.2636 26.7197 45.03 26.7197 47.2011C26.7197 49.3723 24.9534 51.1386 22.7822 51.1386ZM31.334 46.5861H27.9123C27.6071 44.0255 25.4236 42.0332 22.7822 42.0332C20.1409 42.0332 17.9574 44.0255 17.6522 46.5861H16.0762C15.0585 46.5861 14.2305 45.7581 14.2305 44.7404V40.8027H31.334V46.5861ZM37.3633 23.9453C37.3633 23.1085 38.0441 22.4277 38.8809 22.4277C39.7177 22.4277 40.3984 23.1085 40.3984 23.9453V25.0529H37.3633V23.9453ZM44.2539 51.1386C42.0827 51.1386 40.3164 49.3723 40.3164 47.2011C40.3164 45.03 42.0827 43.2636 44.2539 43.2636C46.4251 43.2636 48.1914 45.03 48.1914 47.2011C48.1914 49.3723 46.4251 51.1386 44.2539 51.1386ZM53.7695 39.5722H44.3854C44.0455 39.5722 43.7702 39.8477 43.7702 40.1875C43.7702 40.5272 44.0455 40.8027 44.3854 40.8027H53.7695V44.7404C53.7695 45.7581 52.9415 46.5861 51.9238 46.5861H49.384C49.0787 44.0255 46.8952 42.0332 44.2539 42.0332C41.6126 42.0332 39.4291 44.0255 39.1238 46.5861H32.5645V40.8027H41.5143C41.8542 40.8027 42.1295 40.5272 42.1295 40.1875C42.1295 39.8477 41.8542 39.5722 41.5143 39.5722H32.5645V26.2833H41.6609C42.4127 26.2833 43.0829 26.7321 43.3682 27.4269L46.1474 34.1888C46.3973 34.7969 46.8977 35.2645 47.5203 35.4721L52.5079 37.134C53.2625 37.3854 53.7695 38.089 53.7695 38.8849V39.5722ZM42.2211 28.1562C42.064 27.7659 41.6906 27.5136 41.2699 27.5136H34.8203C34.2549 27.5136 33.7949 27.9736 33.7949 28.539V34.2402C33.7949 34.8056 34.2549 35.2656 34.8203 35.2656H43.5647C44.2726 35.2708 44.786 34.5142 44.5159 33.8573L42.2211 28.1562ZM35.0254 34.0351V28.7441H41.1313L43.2611 34.0351H35.0254ZM44.2539 45.3554C43.2362 45.3554 42.4082 46.1834 42.4082 47.2011C42.4082 48.2189 43.2362 49.0468 44.2539 49.0468C45.2716 49.0468 46.0996 48.2189 46.0996 47.2011C46.0996 46.1834 45.2716 45.3554 44.2539 45.3554ZM44.2539 47.8164C43.9146 47.8164 43.6387 47.5404 43.6387 47.2011C43.6387 46.8619 43.9146 46.5859 44.2539 46.5859C44.5932 46.5859 44.8691 46.8619 44.8691 47.2011C44.8691 47.5404 44.5932 47.8164 44.2539 47.8164ZM23.5205 27.5136H22.0439C21.4333 27.5136 20.9365 28.0104 20.9365 28.6211V31.082H18.4756C17.8649 31.082 17.3682 31.5788 17.3682 32.1894V33.666C17.3682 34.2766 17.8649 34.7734 18.4756 34.7734H20.9365V37.2343C20.9365 37.845 21.4333 38.3418 22.0439 38.3418H23.5205C24.1311 38.3418 24.6279 37.845 24.6279 37.2343V34.7734H27.0889C27.6995 34.7734 28.1963 34.2766 28.1963 33.666V32.1894C28.1963 31.5788 27.6995 31.082 27.0889 31.082H24.6279V28.6211C24.6279 28.0104 24.1311 27.5136 23.5205 27.5136ZM26.9658 32.3125V33.5429H24.2588C23.7838 33.5429 23.3975 33.9293 23.3975 34.4043V37.1113H22.167V34.4043C22.167 33.9293 21.7806 33.5429 21.3057 33.5429H18.5986V32.3125H21.3057C21.7806 32.3125 22.167 31.9261 22.167 31.4511V28.7441H23.3975V31.4511C23.3975 31.9261 23.7838 32.3125 24.2588 32.3125H26.9658ZM22.7822 45.3554C21.7645 45.3554 20.9365 46.1834 20.9365 47.2011C20.9365 48.2189 21.7645 49.0468 22.7822 49.0468C23.7999 49.0468 24.6279 48.2189 24.6279 47.2011C24.6279 46.1834 23.7999 45.3554 22.7822 45.3554ZM22.7822 47.8164C22.4429 47.8164 22.167 47.5404 22.167 47.2011C22.167 46.8619 22.4429 46.5859 22.7822 46.5859C23.1215 46.5859 23.3975 46.8619 23.3975 47.2011C23.3975 47.5404 23.1215 47.8164 22.7822 47.8164Z" fill="#67D7C1"/>
</g>
<defs>
<clipPath id="clip0_0_1">
<rect width="42" height="42" fill="white" transform="translate(13 13)"/>
</clipPath>
</defs>
</svg>
