<svg width="68" height="68" viewBox="0 0 68 68" fill="none" xmlns="http://www.w3.org/2000/svg">
<circle cx="34" cy="34" r="34" fill="#F3FCFF"/>
<path d="M45.6021 25.3281H45.1328V24.7422C45.1328 23.7729 44.3443 22.9844 43.375 22.9844C42.4057 22.9844 41.6172 23.7729 41.6172 24.7422V25.3281H40.4453V21.9297C40.4453 20.9604 39.6568 20.1719 38.6875 20.1719H36.6083C36.2847 20.1719 36.0224 20.4343 36.0224 20.7578C36.0224 21.0814 36.2847 21.3438 36.6083 21.3438H38.6875C39.0106 21.3438 39.2734 21.6066 39.2734 21.9297V25.3281H38.1016V23.1016C38.1016 22.778 37.8392 22.5156 37.5156 22.5156H30.4844C30.1608 22.5156 29.8984 22.778 29.8984 23.1016V25.3281H28.7266V21.9297C28.7266 21.6066 28.9894 21.3438 29.3125 21.3438H31.3349C31.6584 21.3438 31.9208 21.0814 31.9208 20.7578C31.9208 20.4343 31.6584 20.1719 31.3349 20.1719H29.3125C28.3432 20.1719 27.5547 20.9604 27.5547 21.9297V25.3281H26.3828V24.7422C26.3828 23.7729 25.5943 22.9844 24.625 22.9844C23.6557 22.9844 22.8672 23.7729 22.8672 24.7422V25.3281H22.3979C20.5243 25.3281 19 26.8524 19 28.726V44.4303C19 46.3038 20.5243 47.8281 22.3979 47.8281H45.6021C47.4757 47.8281 49 46.3038 49 44.4303V28.726C49 26.8524 47.4757 25.3281 45.6021 25.3281ZM42.7891 24.7422C42.7891 24.4191 43.0519 24.1562 43.375 24.1562C43.6981 24.1562 43.9609 24.4191 43.9609 24.7422V25.3281H42.7891V24.7422ZM31.0703 23.6875H36.9297V25.3281H31.0703V23.6875ZM24.0391 24.7422C24.0391 24.4191 24.3019 24.1562 24.625 24.1562C24.9481 24.1562 25.2109 24.4191 25.2109 24.7422V25.3281H24.0391V24.7422ZM47.8281 44.4303C47.8281 45.6577 46.8296 46.6562 45.6021 46.6562H22.3979C21.1704 46.6562 20.1719 45.6577 20.1719 44.4303V28.726C20.1719 27.4986 21.1704 26.5 22.3979 26.5H45.6021C46.8296 26.5 47.8281 27.4986 47.8281 28.726V44.4303Z" fill="#67D7C1"/>
<path d="M34 30.4418C30.6164 30.4418 27.8636 33.1945 27.8636 36.5781C27.8636 39.9617 30.6164 42.7145 34 42.7145C37.3836 42.7145 40.1364 39.9617 40.1364 36.5781C40.1364 33.1946 37.3836 30.4418 34 30.4418ZM34 41.5426C31.2626 41.5426 29.0355 39.3156 29.0355 36.5781C29.0355 33.8407 31.2626 31.6136 34 31.6136C36.7374 31.6136 38.9645 33.8407 38.9645 36.5781C38.9645 39.3156 36.7374 41.5426 34 41.5426Z" fill="#67D7C1"/>
<path d="M36.1667 34.8203H35.7652V34.4188C35.7652 33.8072 35.2677 33.3097 34.6561 33.3097H33.3586C32.747 33.3097 32.2495 33.8072 32.2495 34.4188V34.8203H31.848C31.2364 34.8203 30.7389 35.3178 30.7389 35.9294V37.2269C30.7389 37.8385 31.2364 38.336 31.848 38.336H32.2495V38.7375C32.2495 39.3491 32.747 39.8466 33.3586 39.8466H34.6561C35.2677 39.8466 35.7652 39.3491 35.7652 38.7375V38.3359H36.1667C36.7783 38.3359 37.2758 37.8384 37.2758 37.2269V35.9294C37.2758 35.3178 36.7783 34.8203 36.1667 34.8203ZM36.1039 37.164H35.1793C34.8557 37.164 34.5934 37.4264 34.5934 37.75V38.6746H33.4215V37.75C33.4215 37.4264 33.1591 37.164 32.8356 37.164H31.9109V35.9922H32.8356C33.1591 35.9922 33.4215 35.7298 33.4215 35.4062V34.4816H34.5934V35.4062C34.5934 35.7298 34.8557 35.9922 35.1793 35.9922H36.1039V37.164Z" fill="#67D7C1"/>
<path d="M33.9716 21.3438C34.2952 21.3438 34.5575 21.0814 34.5575 20.7578C34.5575 20.4342 34.2952 20.1719 33.9716 20.1719C33.648 20.1719 33.3856 20.4342 33.3856 20.7578C33.3856 21.0814 33.648 21.3438 33.9716 21.3438Z" fill="#67D7C1"/>
</svg>
