<svg width="68" height="68" viewBox="0 0 68 68" fill="none" xmlns="http://www.w3.org/2000/svg">
<circle cx="34" cy="34" r="34" fill="white"/>
<path d="M27.6287 28.8378C27.5557 28.8378 27.4836 28.8231 27.4165 28.7945C27.3494 28.7659 27.2888 28.724 27.2384 28.6713C26.6978 28.1081 24.9324 26.0946 24.8514 23.834C24.8465 23.6988 24.8926 23.5667 24.9805 23.4638C25.0453 23.3857 25.0852 23.2901 25.0951 23.1892C25.0914 23.1605 25.0411 23.1227 25.0227 23.1076C24.95 23.055 24.8914 22.9851 24.8525 22.9042C24.8135 22.8233 24.7953 22.734 24.7995 22.6443C24.8195 22.2378 24.9886 21.8529 25.2746 21.5632C25.2199 21.4805 25.159 21.4021 25.0924 21.3286C25.0114 21.242 24.9611 21.1312 24.9493 21.0132C24.9375 20.8952 24.9648 20.7766 25.027 20.6757L25.2065 20.387C25.2708 19.893 25.5714 18.2249 26.7741 17.4103C27.0897 17.2033 27.4439 17.062 27.8154 16.9948C28.1868 16.9277 28.568 16.9361 28.9362 17.0195C29.2253 16.3387 29.7058 15.7566 30.3195 15.3438C31.4432 14.5908 32.9557 14.3973 34.8184 14.7676C39.5714 15.7184 40.6951 17.4476 41.2973 18.5762C41.7116 18.7467 42.0539 19.0556 42.2659 19.4503C42.4153 19.7616 42.4562 20.114 42.3822 20.4513C42.7575 20.8334 43.0166 21.3142 43.1292 21.8378C43.3205 22.6778 43.2135 26.5524 40.7054 28.5578C40.6206 28.6255 40.5174 28.666 40.4093 28.6743C40.3011 28.6825 40.193 28.658 40.099 28.6039C40.0049 28.5499 39.9293 28.4688 39.882 28.3712C39.8347 28.2736 39.8178 28.1641 39.8335 28.0567C39.8649 27.8441 39.8905 27.6348 39.9103 27.4286C39.9495 27.0065 39.9009 26.5809 39.7676 26.1784C39.6343 25.776 39.4191 25.4055 39.1357 25.0903C38.8522 24.775 38.5066 24.5219 38.1205 24.3467C37.7345 24.1715 37.3163 24.0781 36.8924 24.0724C35.45 24.0309 34.0387 23.6434 32.7773 22.9427L32.6481 22.8746C32.1825 22.6314 31.6617 22.5132 31.1367 22.5316C30.6117 22.5499 30.1005 22.7043 29.653 22.9795C29.1979 23.2536 28.822 23.6412 28.5618 24.1044C28.3017 24.5676 28.1664 25.0904 28.1692 25.6216V28.2973C28.1692 28.4052 28.1368 28.5107 28.0763 28.6001C28.0158 28.6895 27.9299 28.7588 27.8297 28.7989C27.7659 28.8248 27.6976 28.838 27.6287 28.8378ZM25.9422 23.9686C26.0831 24.9867 26.4771 25.9531 27.0881 26.7795V25.6216C27.0871 24.9089 27.2693 24.2079 27.6173 23.586C27.9653 22.964 28.4674 22.442 29.0753 22.0701C29.6833 21.6981 30.3766 21.4888 31.0888 21.4621C31.801 21.4355 32.5081 21.5924 33.1422 21.9178L33.2849 21.993C34.3946 22.6118 35.6365 22.9554 36.9065 22.9951C37.9155 23.0089 38.885 23.3896 39.6339 24.066C40.3827 24.7425 40.8597 25.6684 40.9757 26.6708C41.8201 25.2894 42.203 23.6751 42.0692 22.0616C41.9673 21.6641 41.7442 21.3082 41.4308 21.0432C41.3409 20.9702 41.2767 20.8703 41.2476 20.7582C41.2184 20.6461 41.2258 20.5276 41.2687 20.42C41.3103 20.3456 41.3343 20.2626 41.3389 20.1774C41.3435 20.0922 41.3285 20.0071 41.2951 19.9286C41.1688 19.7394 40.9815 19.5992 40.7643 19.5313C40.694 19.5109 40.6286 19.4765 40.572 19.43C40.5154 19.3835 40.4688 19.3261 40.4351 19.2611C39.9081 18.2524 39.1141 16.7319 34.6087 15.8308C33.0411 15.5195 31.8011 15.6573 30.9287 16.2438C30.3899 16.6029 29.9984 17.144 29.8259 17.7681C29.8113 17.8425 29.7812 17.9131 29.7375 17.9751C29.6938 18.0371 29.6375 18.0892 29.5724 18.1281C29.5072 18.1669 29.4346 18.1916 29.3593 18.2006C29.284 18.2095 29.2076 18.2025 29.1351 18.18C28.8542 18.0637 28.5501 18.0144 28.2468 18.0357C27.9436 18.0571 27.6494 18.1487 27.3876 18.3032C26.4227 18.9519 26.2724 20.5973 26.2708 20.614C26.2636 20.6994 26.2364 20.7818 26.1914 20.8546L26.1497 20.9216C26.3545 21.1794 26.4501 21.5071 26.4162 21.8346C26.3923 21.9526 26.3406 22.0632 26.2654 22.1572C26.1902 22.2512 26.0937 22.3259 25.9838 22.3751C25.9569 22.4064 25.9375 22.4434 25.927 22.4832C26.0608 22.6485 26.1451 22.8483 26.1703 23.0595C26.1969 23.3794 26.1167 23.6992 25.9422 23.9686ZM25.5135 21.4054L25.4978 21.4135L25.5135 21.4054Z" fill="#67D7C1"/>
<path d="M34.0141 37.6287C31.8724 37.5708 30.4308 36.0476 29.0368 34.5746C28.8876 34.4168 28.7384 34.2589 28.5887 34.1038C27.5845 33.0284 27.0456 31.5999 27.0892 30.1292V28.1373C27.0892 27.9939 27.1461 27.8565 27.2475 27.7551C27.3489 27.6537 27.4864 27.5968 27.6297 27.5968C27.7731 27.5968 27.9106 27.6537 28.012 27.7551C28.1133 27.8565 28.1703 27.9939 28.1703 28.1373V30.1681C28.1444 31.3438 28.5733 32.4841 29.3676 33.3514C29.5195 33.5092 29.6708 33.6692 29.8222 33.8292C31.1195 35.2027 32.3497 36.5 34.0141 36.546C35.6487 36.5 36.8789 35.2027 38.1762 33.8287C38.3276 33.6692 38.4789 33.5092 38.6303 33.3514C39.4183 32.4937 39.8478 31.3667 39.8303 30.2022V28.1351C39.8303 27.9918 39.8872 27.8543 39.9886 27.7529C40.09 27.6516 40.2275 27.5946 40.3708 27.5946C40.5142 27.5946 40.6517 27.6516 40.753 27.7529C40.8544 27.8543 40.9114 27.9918 40.9114 28.1351V30.166C40.9457 31.6238 40.4068 33.0369 39.4103 34.1016C39.2606 34.2568 39.1119 34.4146 38.9627 34.5719C37.5676 36.0476 36.1265 37.5708 34.0141 37.6287Z" fill="#67D7C1"/>
<path d="M27.3876 30.8919C26.2838 30.8919 25.3876 29.8108 25.3876 28.4832C25.3809 28.1226 25.449 27.7645 25.5877 27.4316C25.7263 27.0986 25.9324 26.798 26.193 26.5486C26.2999 26.4531 26.4404 26.4039 26.5836 26.412C26.7268 26.42 26.8609 26.4847 26.9565 26.5916C27.052 26.6986 27.1012 26.8391 27.0931 26.9823C27.0851 27.1254 27.0205 27.2596 26.9135 27.3551C26.7659 27.5025 26.6502 27.6788 26.5736 27.8728C26.4971 28.0669 26.4613 28.2747 26.4686 28.4832C26.4686 29.253 26.9768 29.8886 27.4913 29.8021C27.6328 29.7784 27.7778 29.8118 27.8946 29.8951C28.0114 29.9783 28.0903 30.1045 28.114 30.2459C28.1378 30.3874 28.1043 30.5324 28.0211 30.6492C27.9379 30.766 27.8117 30.8449 27.6703 30.8686C27.5768 30.8841 27.4823 30.8919 27.3876 30.8919Z" fill="#67D7C1"/>
<path d="M40.6108 30.8919C40.5164 30.8919 40.4222 30.8839 40.3292 30.8681C40.1889 30.8431 40.0641 30.7637 39.9821 30.6472C39.9 30.5307 39.8673 30.3865 39.891 30.2459C39.9147 30.1054 39.993 29.9799 40.1088 29.8968C40.2246 29.8137 40.3685 29.7797 40.5092 29.8021C41.0211 29.8892 41.5314 29.253 41.5314 28.4832C41.5388 28.2748 41.5031 28.067 41.4267 27.8729C41.3502 27.6788 41.2346 27.5025 41.087 27.3551C41.0341 27.3078 40.991 27.2505 40.9601 27.1866C40.9293 27.1226 40.9114 27.0532 40.9074 26.9823C40.8994 26.8391 40.9485 26.6986 41.0441 26.5916C41.1396 26.4847 41.2737 26.42 41.4169 26.412C41.5601 26.4039 41.7006 26.4531 41.8076 26.5486C42.068 26.7981 42.2739 27.0987 42.4125 27.4317C42.551 27.7646 42.6191 28.1227 42.6124 28.4832C42.6124 29.8113 41.7146 30.8919 40.6108 30.8919Z" fill="#67D7C1"/>
<path d="M31.6708 43.1622C31.6551 43.1622 31.6389 43.1622 31.6227 43.1622C31.5407 43.1548 31.4614 43.1288 31.3909 43.0861C31.3205 43.0433 31.2607 42.9851 31.2162 42.9157L28.7632 39.0919C28.7043 39.0001 28.6745 38.8925 28.6779 38.7833C28.6813 38.6742 28.7176 38.5687 28.7822 38.4806L29.7011 37.2309C29.7833 37.1187 29.9055 37.0425 30.0424 37.0181C30.1793 36.9938 30.3204 37.0231 30.4362 37.1001L34.3006 39.6714C34.3651 39.715 34.4195 39.7721 34.46 39.8387C34.5004 39.9054 34.526 39.9799 34.5349 40.0574C34.5439 40.1348 34.536 40.2132 34.5117 40.2873C34.4875 40.3614 34.4476 40.4294 34.3946 40.4865L32.0665 42.9892C32.016 43.0437 31.9548 43.0872 31.8867 43.117C31.8186 43.1467 31.7451 43.1621 31.6708 43.1622ZM29.8735 38.8184L31.7497 41.7433L33.1703 40.2163L30.2654 38.2838L29.8735 38.8184Z" fill="#67D7C1"/>
<path d="M36.327 43.1622C36.2528 43.1622 36.1793 43.1468 36.1112 43.1172C36.0432 43.0875 35.9819 43.0441 35.9314 42.9897L33.6038 40.4865C33.5504 40.4292 33.5102 40.3609 33.4858 40.2865C33.4614 40.2121 33.4535 40.1333 33.4626 40.0555C33.4717 39.9777 33.4976 39.9028 33.5385 39.836C33.5794 39.7692 33.6343 39.7121 33.6995 39.6687L37.5638 37.0973C37.6796 37.0204 37.8207 36.991 37.9576 37.0154C38.0945 37.0397 38.2167 37.1159 38.2989 37.2281L39.2179 38.4778C39.2825 38.5659 39.3189 38.6714 39.3224 38.7805C39.3258 38.8896 39.2962 38.9973 39.2373 39.0892L36.7822 42.9135C36.7377 42.9829 36.6779 43.0411 36.6075 43.0839C36.537 43.1266 36.4577 43.1526 36.3757 43.16C36.3595 43.1611 36.3433 43.1622 36.327 43.1622ZM34.8281 40.2162L36.2487 41.7427L38.1249 38.8178L37.733 38.2838L34.8281 40.2162Z" fill="#67D7C1"/>
<path d="M47.1773 53.6487H20.2822C19.7517 53.6487 19.243 53.438 18.868 53.0629C18.4929 52.6878 18.2822 52.1791 18.2822 51.6487V46.8254C18.2768 45.305 18.7612 43.8233 19.6637 42.5997C20.5662 41.3761 21.8388 40.4758 23.293 40.0319L29.1622 38.3152C29.2998 38.2749 29.4478 38.291 29.5735 38.3599C29.6993 38.4288 29.7925 38.5448 29.8327 38.6825C29.8729 38.8201 29.8568 38.968 29.7879 39.0938C29.7191 39.2195 29.603 39.3128 29.4654 39.353L23.6054 41.067C22.374 41.4445 21.2967 42.2082 20.5329 43.2452C19.769 44.2822 19.3591 45.5375 19.3638 46.8254V51.6487C19.3638 51.8924 19.4606 52.1261 19.6329 52.2984C19.8053 52.4708 20.039 52.5676 20.2827 52.5676H47.1773C47.421 52.5676 47.6548 52.4708 47.8271 52.2984C47.9994 52.1261 48.0962 51.8924 48.0962 51.6487V46.2849C48.1008 44.9955 47.69 43.739 46.9246 42.7014C46.1591 41.6639 45.0798 40.9005 43.8465 40.5243L38.6643 39.3892C38.5243 39.3585 38.4021 39.2735 38.3248 39.1527C38.2474 39.032 38.2212 38.8855 38.2519 38.7454C38.2826 38.6054 38.3676 38.4832 38.4884 38.4059C38.6091 38.3285 38.7556 38.3023 38.8957 38.333L44.1216 39.4773C45.5851 39.9154 46.8679 40.8146 47.7788 42.0409C48.6898 43.2672 49.1801 44.7551 49.1768 46.2827V51.6487C49.1768 52.179 48.9661 52.6876 48.5912 53.0627C48.2162 53.4377 47.7076 53.6485 47.1773 53.6487Z" fill="#67D7C1"/>
<path d="M34 40.6573C33.8934 40.6575 33.7892 40.6261 33.7005 40.567L29.8378 38C29.7519 37.9428 29.6842 37.8622 29.6426 37.7678C29.6011 37.6733 29.5874 37.5689 29.6032 37.467L29.9584 35.1967C29.9686 35.1259 29.9927 35.0578 30.0294 34.9964C30.066 34.935 30.1145 34.8815 30.172 34.839C30.2296 34.7965 30.2949 34.7658 30.3644 34.7487C30.4338 34.7316 30.506 34.7285 30.5767 34.7395C30.6473 34.7505 30.7151 34.7755 30.7761 34.8129C30.837 34.8503 30.89 34.8994 30.9318 34.9574C30.9737 35.0154 31.0036 35.0812 31.0198 35.1508C31.0361 35.2205 31.0383 35.2927 31.0265 35.3632L30.7243 37.2945L34 39.4681L37.2778 37.2897L36.973 35.3589C36.9611 35.2883 36.9634 35.2161 36.9796 35.1465C36.9959 35.0768 37.0258 35.0111 37.0676 34.9531C37.1095 34.8951 37.1624 34.846 37.2234 34.8086C37.2844 34.7712 37.3521 34.7462 37.4228 34.7352C37.4935 34.7242 37.5656 34.7273 37.6351 34.7444C37.7045 34.7615 37.7699 34.7921 37.8274 34.8347C37.8849 34.8772 37.9334 34.9307 37.9701 34.9921C38.0068 35.0535 38.0309 35.1216 38.0411 35.1924L38.3962 37.4627C38.4122 37.5647 38.3986 37.6692 38.357 37.7637C38.3154 37.8583 38.2476 37.9389 38.1616 37.9962L34.2962 40.5643C34.2087 40.6236 34.1057 40.6559 34 40.6573Z" fill="#67D7C1"/>
<path d="M45.2378 48.6053C45.1977 48.606 45.1577 48.6024 45.1184 48.5945L44.2384 48.3951C44.1678 48.3808 44.1007 48.3525 44.0412 48.3119C43.9817 48.2714 43.9309 48.2193 43.8918 48.1588C43.8526 48.0983 43.826 48.0306 43.8134 47.9597C43.8008 47.8888 43.8026 47.8161 43.8185 47.7458C43.8344 47.6755 43.8642 47.6092 43.9062 47.5506C43.9481 47.492 44.0013 47.4424 44.0627 47.4047C44.1241 47.367 44.1924 47.342 44.2636 47.331C44.3348 47.3201 44.4074 47.3235 44.4773 47.341L44.8297 47.4205L45.2157 45.7178C45.2797 45.4595 45.2915 45.1911 45.2504 44.9282C45.2094 44.6653 45.1163 44.4133 44.9766 44.1868C44.837 43.9604 44.6535 43.7641 44.437 43.6094C44.2205 43.4547 43.9753 43.3448 43.7158 43.2861C43.4563 43.2274 43.1877 43.221 42.9257 43.2674C42.6637 43.3138 42.4136 43.412 42.19 43.5562C41.9665 43.7005 41.7739 43.8879 41.6237 44.1075C41.4735 44.3271 41.3686 44.5744 41.3151 44.8351L40.9297 46.5372L41.2822 46.6172C41.422 46.6489 41.5436 46.7347 41.6201 46.856C41.6966 46.9772 41.7219 47.1239 41.6903 47.2637C41.6587 47.4036 41.5728 47.5251 41.4515 47.6017C41.3303 47.6782 41.1836 47.7034 41.0438 47.6718L40.1622 47.4702C40.0927 47.4545 40.0271 47.4253 39.969 47.3841C39.9109 47.343 39.8615 47.2908 39.8236 47.2306C39.7858 47.1703 39.7602 47.1031 39.7483 47.0329C39.7365 46.9628 39.7386 46.8909 39.7546 46.8216L40.2595 44.5913C40.3489 44.1966 40.5153 43.8234 40.749 43.493C40.9827 43.1627 41.2792 42.8815 41.6215 42.6657C41.9639 42.4499 42.3454 42.3036 42.7442 42.2353C43.1431 42.1669 43.5515 42.1778 43.9462 42.2672C44.3409 42.3567 44.7141 42.5231 45.0445 42.7568C45.3749 42.9905 45.656 43.2869 45.8718 43.6293C46.0876 43.9716 46.2339 44.3531 46.3022 44.752C46.3706 45.1509 46.3597 45.5593 46.2703 45.954L45.7654 48.1837C45.7384 48.3034 45.6716 48.4103 45.5758 48.4869C45.48 48.5635 45.361 48.6053 45.2384 48.6053H45.2378Z" fill="#67D7C1"/>
<path d="M23.7941 44.1838C23.6711 44.1836 23.5519 44.1415 23.4561 44.0645C23.3603 43.9874 23.2936 43.88 23.267 43.76L22.607 40.7762C22.5917 40.7069 22.5902 40.6352 22.6025 40.5653C22.6149 40.4954 22.6409 40.4286 22.6791 40.3688C22.7172 40.3089 22.7668 40.2571 22.825 40.2165C22.8832 40.1758 22.9488 40.1469 23.0181 40.1316C23.0874 40.1163 23.1591 40.1147 23.229 40.1271C23.2989 40.1395 23.3657 40.1655 23.4255 40.2036C23.4854 40.2418 23.5372 40.2914 23.5778 40.3496C23.6185 40.4077 23.6474 40.4734 23.6627 40.5427L24.3227 43.5265C24.3536 43.6664 24.3276 43.813 24.2505 43.9338C24.1733 44.0546 24.0513 44.1399 23.9114 44.1708C23.8729 44.1796 23.8335 44.1839 23.7941 44.1838Z" fill="#67D7C1"/>
<path d="M43.8546 43.3406C43.8155 43.3404 43.7766 43.3362 43.7384 43.3281C43.669 43.3129 43.6033 43.2842 43.5451 43.2437C43.4868 43.2031 43.4371 43.1515 43.3988 43.0917C43.3605 43.0319 43.3344 42.9651 43.3219 42.8953C43.3094 42.8254 43.3107 42.7537 43.3259 42.6843L43.9043 40.0411C43.935 39.901 44.0201 39.7789 44.1408 39.7016C44.2615 39.6242 44.408 39.598 44.5481 39.6287C44.6882 39.6594 44.8103 39.7444 44.8876 39.8651C44.965 39.9859 44.9912 40.1324 44.9605 40.2725L44.3822 42.9157C44.3558 43.036 44.2891 43.1437 44.1932 43.221C44.0972 43.2983 43.9778 43.3405 43.8546 43.3406Z" fill="#67D7C1"/>
<path d="M24.5741 47.9886C24.075 47.9887 23.5871 47.8408 23.1721 47.5636C22.7571 47.2864 22.4336 46.8924 22.2425 46.4314C22.0514 45.9703 22.0014 45.4629 22.0987 44.9735C22.196 44.484 22.4363 44.0343 22.7891 43.6814C23.142 43.3284 23.5916 43.0881 24.0811 42.9907C24.5705 42.8933 25.0779 42.9432 25.539 43.1342C26.0001 43.3251 26.3942 43.6485 26.6715 44.0635C26.9488 44.4784 27.0968 44.9663 27.0968 45.4654C27.0962 46.1343 26.8302 46.7757 26.3573 47.2488C25.8843 47.7218 25.243 47.9879 24.5741 47.9886ZM24.5741 44.0238C24.2888 44.0237 24.0099 44.1082 23.7726 44.2666C23.5354 44.425 23.3505 44.6502 23.2412 44.9138C23.132 45.1773 23.1034 45.4673 23.159 45.7471C23.2147 46.0269 23.352 46.284 23.5538 46.4857C23.7555 46.6874 24.0125 46.8248 24.2923 46.8804C24.5721 46.936 24.8621 46.9074 25.1257 46.7982C25.3892 46.689 25.6144 46.504 25.7729 46.2668C25.9313 46.0296 26.0158 45.7507 26.0157 45.4654C26.0152 45.0832 25.8632 44.7167 25.593 44.4465C25.3227 44.1762 24.9563 44.0242 24.5741 44.0238Z" fill="#67D7C1"/>
<path d="M24.5741 46.2821C25.0252 46.2821 25.3908 45.9165 25.3908 45.4654C25.3908 45.0143 25.0252 44.6486 24.5741 44.6486C24.123 44.6486 23.7573 45.0143 23.7573 45.4654C23.7573 45.9165 24.123 46.2821 24.5741 46.2821Z" fill="#67D7C1"/>
<path d="M24.5741 46.5529C24.3589 46.5531 24.1486 46.4894 23.9697 46.3699C23.7908 46.2505 23.6513 46.0807 23.5689 45.8819C23.4865 45.6832 23.4649 45.4645 23.5068 45.2535C23.5487 45.0425 23.6522 44.8487 23.8043 44.6965C23.9564 44.5444 24.1502 44.4408 24.3611 44.3987C24.5721 44.3567 24.7908 44.3782 24.9896 44.4605C25.1883 44.5428 25.3582 44.6822 25.4778 44.8611C25.5973 45.04 25.6611 45.2503 25.6611 45.4654C25.6608 45.7536 25.5462 46.03 25.3424 46.2339C25.1386 46.4378 24.8623 46.5525 24.5741 46.5529ZM24.5741 44.9189C24.4658 44.9188 24.36 44.9508 24.2699 45.0109C24.1799 45.0709 24.1097 45.1564 24.0682 45.2563C24.0268 45.3563 24.0159 45.4663 24.037 45.5725C24.0581 45.6787 24.1102 45.7762 24.1867 45.8527C24.2632 45.9293 24.3608 45.9814 24.4669 46.0025C24.5731 46.0236 24.6831 46.0127 24.7831 45.9712C24.8831 45.9297 24.9685 45.8595 25.0286 45.7695C25.0886 45.6795 25.1207 45.5736 25.1205 45.4654C25.1204 45.3205 25.0628 45.1816 24.9603 45.0791C24.8579 44.9767 24.7189 44.919 24.5741 44.9189Z" fill="#67D7C1"/>
</svg>
