<svg width="68" height="68" viewBox="0 0 68 68" fill="none" xmlns="http://www.w3.org/2000/svg">
<circle cx="34" cy="34" r="34" fill="#F3FCFF"/>
<g clip-path="url(#clip0_0_1)">
<path d="M19.7727 21.1767C18.0297 23.267 17.6189 26.1862 18.7064 28.68L18.5653 28.8211C18.1763 29.2101 18.1763 29.8407 18.5653 30.2297C18.7598 30.4242 19.0147 30.5215 19.2696 30.5215C19.5244 30.5215 20.6205 29.5832 20.6205 29.5832C20.6207 29.583 29.0933 21.1103 29.0935 21.1101L29.7401 20.4635C30.1291 20.0745 30.1291 19.4439 29.7401 19.0549C29.3512 18.6659 28.7205 18.6659 28.3315 19.0549L28.1904 19.196C25.9138 18.2032 23.2829 18.4597 21.2514 19.8381L18.705 17.2918C18.316 16.9028 17.6854 16.9028 17.2964 17.2918C16.9074 17.6808 16.9074 18.3114 17.2964 18.7004L19.7727 21.1767Z" fill="#67D7C1"/>
<path d="M39.5114 45.0903C40.0615 45.0903 40.5074 44.6443 40.5074 44.0942V42.1022H27.4926V44.0942C27.4926 44.6443 27.9386 45.0903 28.4886 45.0903H39.5114Z" fill="#67D7C1"/>
<path d="M50.0029 36.126H45.0891C44.5413 36.126 44.0931 36.5742 44.0931 37.122C44.0931 36.5735 43.6457 36.126 43.0971 36.126H26.7622C26.2136 36.126 25.7662 36.5734 25.7661 37.1219C25.7661 36.5742 25.3179 36.126 24.7701 36.126H17.9971C17.4493 36.126 17.0011 36.5742 17.0011 37.122V39.1141C17.0011 39.6642 17.447 40.1102 17.9971 40.1102H50.0029C50.553 40.1102 50.9989 39.6642 50.9989 39.1141V37.122C50.9989 36.5742 50.5507 36.126 50.0029 36.126Z" fill="#67D7C1"/>
<path d="M42.1338 49.0079H37.6521V47.0823H30.3479V49.0079H25.4005C24.8504 49.0079 24.4045 49.4539 24.4045 50.004C24.4045 50.554 24.8504 51 25.4005 51H42.1338C42.6838 51 43.1298 50.554 43.1298 50.004C43.1298 49.4539 42.6839 49.0079 42.1338 49.0079Z" fill="#67D7C1"/>
</g>
<defs>
<clipPath id="clip0_0_1">
<rect width="34" height="34" fill="white" transform="translate(17 17)"/>
</clipPath>
</defs>
</svg>
